# xmcd
#
# Track frame offsets: 
#        150
#        17752
#        34337
#        52184
#        64905
#        85014
#        99129
#        114888
#        129200
#        144258
#        161958
#        175150
#
# Disc length: 2593 seconds
#
# Revision: 0
# Processed by: cddbd v1.5.2PL0 Copyright (c) Steve Scherf et al.
# Submitted via: ExactAudioCopy v0.99pb5
#
DISCID=960a1f0c
DTITLE=Micky and The Motorcars - Live at Billy Bob's Texas [CD2]
DYEAR=2009
DGENRE=Country
TTITLE0=Which Way From Here
TTITLE1=Louisiana Baby
TTITLE2=Looking for a Job
TTITLE3=Amber
TTITLE4=Rock Springs to Cheyenne
TTITLE5=Pointless Love
TTITLE6=Stay with Me
TTITLE7=Misunderstood
TTITLE8=Little Baby
TTITLE9=Bloodshot
TTITLE10=Lost and Found
TTITLE11=Careless
EXTD=
EXTT0=
EXTT1=
EXTT2=
EXTT3=
EXTT4=
EXTT5=
EXTT6=
EXTT7=
EXTT8=
EXTT9=
EXTT10=
EXTT11=
PLAYORDER=
